<?xml version="1.0" encoding="utf-8"?>
<!-- Generator: Adobe Illustrator 15.0.0, SVG Export Plug-In . SVG Version: 6.00 Build 0)  -->
<!DOCTYPE svg PUBLIC "-//W3C//DTD SVG 1.1//EN" "http://www.w3.org/Graphics/SVG/1.1/DTD/svg11.dtd">
<svg version="1.1" xmlns="http://www.w3.org/2000/svg" xmlns:xlink="http://www.w3.org/1999/xlink" x="0px" y="0px" width="1440px"
	 height="900px" viewBox="0 0 1440 900" enable-background="new 0 0 1440 900" xml:space="preserve">
<g id="Background" display="none">
	<rect display="inline" fill="#2D2D2D" width="1440" height="900"/>
</g>
<g id="Layer_1">
	<g display="none">
		<path display="inline" fill="none" stroke="#694B91" stroke-width="12" stroke-miterlimit="10" d="M0,308.121
			c720,0,720,192,1440,192"/>
	</g>
	<g display="none">
		<path display="inline" fill="none" stroke="#7655A3" stroke-width="10" stroke-miterlimit="10" d="M0,340.121
			c240,0,240,128,479.999,128c240,0,240-128,480.001-128c240,0,240,128,480,128"/>
	</g>
	<g display="none">
		<path display="inline" fill="none" stroke="#835EB4" stroke-width="8" stroke-miterlimit="10" d="M0,356.121
			c143.997,0,143.997,96,287.993,96c143.999,0,143.999-96,287.997-96c144.001,0,144.001,96,288.003,96
			c144.001,0,144.001-96,288.003-96s144.002,96,288.004,96"/>
	</g>
	<g display="none">
		<path display="inline" fill="none" stroke="#9067C6" stroke-width="6" stroke-miterlimit="10" d="M0,364.121
			c80,0,80,80,159.999,80c79.999,0,79.999-80,159.999-80c79.999,0,79.999,80,159.998,80c79.998,0,79.998-80,159.996-80
			c79.999,0,79.999,80,159.998,80c80,0,80-80,160-80c79.999,0,79.999,80,159.999,80c80.003,0,80.003-80,160.006-80
			s80.003,80,160.006,80"/>
	</g>
	<g>
		<path fill="none" stroke="#9A74CB" stroke-width="5" stroke-miterlimit="10" d="M-1,372.121c42.352,0,42.352,64,84.703,64
			c42.353,0,42.353-64,84.706-64c42.352,0,42.352,64,84.704,64s42.352-64,84.704-64c42.353,0,42.353,64,84.706,64
			c42.353,0,42.353-64,84.706-64c42.35,0,42.35,64,84.7,64c42.352,0,42.352-64,84.704-64c42.353,0,42.353,64,84.706,64
			c42.353,0,42.353-64,84.704-64c42.354,0,42.354,64,84.706,64s42.353-64,84.706-64s42.354,64,84.707,64s42.354-64,84.706-64
			c42.354,0,42.354,64,84.708,64c42.355,0,42.355-64,84.712-64s42.356,64,84.712,64"/>
	</g>
	<g display="none">
		<path display="inline" fill="none" stroke="#A482D0" stroke-width="4" stroke-miterlimit="10" d="M1,380.121
			c21.816,0,21.816,48,43.633,48c21.817,0,21.817-48,43.635-48c21.818,0,21.818,48,43.635,48c21.818,0,21.818-48,43.636-48
			c21.818,0,21.818,48,43.636,48s21.818-48,43.635-48s21.817,48,43.635,48c21.817,0,21.817-48,43.634-48s21.817,48,43.635,48
			c21.818,0,21.818-48,43.636-48c21.817,0,21.817,48,43.635,48c21.818,0,21.818-48,43.636-48c21.817,0,21.817,48,43.635,48
			c21.815,0,21.815-48,43.63-48s21.815,48,43.631,48c21.816,0,21.816-48,43.632-48c21.817,0,21.817,48,43.633,48
			c21.819,0,21.819-48,43.639-48c21.817,0,21.817,48,43.634,48c21.818,0,21.818-48,43.636-48s21.817,48,43.636,48
			c21.817,0,21.817-48,43.635-48c21.818,0,21.818,48,43.637,48c21.819,0,21.819-48,43.639-48c21.82,0,21.82,48,43.64,48
			s21.819-48,43.639-48c21.816,0,21.816,48,43.633,48c21.819,0,21.819-48,43.639-48s21.819,48,43.639,48
			c21.821,0,21.821-48,43.642-48s21.82,48,43.64,48c21.823,0,21.823-48,43.646-48c21.823,0,21.823,48,43.646,48"/>
	</g>
	<g display="none">
		<path display="inline" fill="none" stroke="#AE90D5" stroke-width="3" stroke-miterlimit="10" d="M0,388.121
			c11.075,0,11.075,32,22.15,32c11.076,0,11.076-32,22.153-32c11.076,0,11.076,32,22.151,32s11.076-32,22.151-32
			c11.076,0,11.076,32,22.152,32s11.076-32,22.152-32s11.076,32,22.151,32c11.076,0,11.076-32,22.153-32
			c11.076,0,11.076,32,22.152,32c11.076,0,11.076-32,22.151-32c11.077,0,11.077,32,22.154,32c11.076,0,11.076-32,22.152-32
			s11.076,32,22.152,32c11.077,0,11.077-32,22.153-32s11.076,32,22.152,32c11.077,0,11.077-32,22.154-32
			c11.076,0,11.076,32,22.152,32c11.077,0,11.077-32,22.154-32c11.076,0,11.076,32,22.152,32c11.077,0,11.077-32,22.154-32
			c11.076,0,11.076,32,22.152,32c11.077,0,11.077-32,22.154-32s11.077,32,22.153,32c11.077,0,11.077-32,22.154-32
			s11.077,32,22.153,32c11.077,0,11.077-32,22.153-32c11.077,0,11.077,32,22.154,32s11.077-32,22.153-32s11.077,32,22.153,32
			c11.074,0,11.074-32,22.147-32c11.076,0,11.076,32,22.152,32c11.075,0,11.075-32,22.15-32s11.075,32,22.15,32
			c11.076,0,11.076-32,22.152-32c11.074,0,11.074,32,22.149,32c11.077,0,11.077-32,22.155-32c11.075,0,11.075,32,22.15,32
			c11.078,0,11.078-32,22.155-32c11.075,0,11.075,32,22.15,32c11.077,0,11.077-32,22.153-32c11.077,0,11.077,32,22.154,32
			c11.076,0,11.076-32,22.151-32c11.077,0,11.077,32,22.154,32c11.078,0,11.078-32,22.156-32c11.077,0,11.077,32,22.154,32
			s11.077-32,22.153-32c11.077,0,11.077,32,22.154,32s11.077-32,22.154-32s11.077,32,22.154,32c11.079,0,11.079-32,22.158-32
			c11.078,0,11.078,32,22.155,32c11.078,0,11.078-32,22.156-32s11.078,32,22.156,32s11.078-32,22.156-32
			c11.077,0,11.077,32,22.153,32c11.078,0,11.078-32,22.157-32c11.077,0,11.077,32,22.153,32c11.078,0,11.078-32,22.156-32
			s11.078,32,22.156,32c11.08,0,11.08-32,22.159-32s11.079,32,22.159,32s11.08-32,22.16-32s11.08,32,22.16,32
			c11.082,0,11.082-32,22.163-32s11.081,32,22.163,32"/>
	</g>
</g>
</svg>
