<svg xmlns="http://www.w3.org/2000/svg" width="2640" height="1650" viewBox="0 0 2640 1650"><path fill="none" stroke="#9A74CB" stroke-width="5" stroke-miterlimit="10" d="M-4.96 705.98c77.77 0 77.77 236.04 155.54 236.04s77.77-236.04 155.54-236.04 77.77 236.04 155.54 236.04 77.77-236.04 155.54-236.04 77.77 236.04 155.55 236.04c77.77 0 77.77-236.04 155.54-236.04 77.76 0 77.76 236.04 155.52 236.04 77.78 0 77.78-236.04 155.55-236.04 77.77 0 77.77 236.04 155.54 236.04 77.78 0 77.78-236.04 155.55-236.04 77.77 0 77.77 236.04 155.55 236.04 77.77 0 77.77-236.04 155.54-236.04s77.77 236.04 155.55 236.04c77.76 0 77.76-236.04 155.53-236.04 77.78 0 77.78 236.04 155.55 236.04 77.78 0 77.78-236.04 155.56-236.04 77.77 0 77.77 236.04 155.55 236.04"/></svg>