<svg xmlns="http://www.w3.org/2000/svg" width="2640" height="1650" viewBox="0 0 2640 1650"><path fill="none" stroke="#A482D0" stroke-width="4" stroke-miterlimit="10" d="M-1.3 623.9c40.07 0 40.07 400.2 80.13 400.2 40.07 0 40.07-400.2 80.13-400.2 40.06 0 40.06 400.2 80.13 400.2 40.05 0 40.05-400.2 80.1-400.2 40.08 0 40.08 400.2 80.14 400.2s40.07-400.2 80.13-400.2c40.06 0 40.06 400.2 80.13 400.2 40.06 0 40.06-400.2 80.12-400.2s40.06 400.2 80.13 400.2c40.06 0 40.06-400.2 80.12-400.2 40.07 0 40.07 400.2 80.13 400.2 40.06 0 40.06-400.2 80.13-400.2 40.06 0 40.06 400.2 80.13 400.2 40.06 0 40.06-400.2 80.1-400.2 40.07 0 40.07 400.2 80.13 400.2 40.05 0 40.05-400.2 80.1-400.2 40.08 0 40.08 400.2 80.14 400.2s40.06-400.2 80.13-400.2c40.06 0 40.06 400.2 80.12 400.2s40.06-400.2 80.12-400.2 40.06 400.2 80.13 400.2c40.06 0 40.06-400.2 80.13-400.2 40.06 0 40.06 400.2 80.13 400.2 40.07 0 40.07-400.2 80.14-400.2s40.07 400.2 80.13 400.2c40.07 0 40.07-400.2 80.14-400.2s40.07 400.2 80.13 400.2c40.07 0 40.07-400.2 80.13-400.2 40.07 0 40.07 400.2 80.14 400.2s40.07-400.2 80.14-400.2 40.06 400.2 80.13 400.2c40.07 0 40.07-400.2 80.15-400.2 40.07 0 40.07 400.2 80.14 400.2"/></svg>