<svg xmlns="http://www.w3.org/2000/svg" width="2640" height="1650" viewBox="0 0 2640 1650"><path fill="none" stroke="#A482D0" stroke-width="4" stroke-miterlimit="10" d="M-1.3 735.5c40.07 0 40.07 177 80.13 177 40.07 0 40.07-177 80.13-177 40.06 0 40.06 177 80.13 177 40.05 0 40.05-177 80.1-177 40.08 0 40.08 177 80.14 177s40.07-177 80.13-177c40.06 0 40.06 177 80.13 177 40.06 0 40.06-177 80.12-177s40.06 177 80.13 177c40.06 0 40.06-177 80.12-177 40.07 0 40.07 177 80.13 177 40.06 0 40.06-177 80.13-177 40.06 0 40.06 177 80.13 177 40.06 0 40.06-177 80.1-177 40.07 0 40.07 177 80.13 177 40.05 0 40.05-177 80.1-177 40.08 0 40.08 177 80.14 177s40.06-177 80.13-177c40.06 0 40.06 177 80.12 177s40.06-177 80.12-177 40.06 177 80.13 177c40.06 0 40.06-177 80.13-177 40.06 0 40.06 177 80.13 177 40.07 0 40.07-177 80.14-177s40.07 177 80.13 177c40.07 0 40.07-177 80.14-177s40.07 177 80.13 177c40.07 0 40.07-177 80.13-177 40.07 0 40.07 177 80.14 177s40.07-177 80.14-177 40.06 177 80.13 177c40.07 0 40.07-177 80.15-177 40.07 0 40.07 177 80.14 177"/></svg>