<svg xmlns="http://www.w3.org/2000/svg" width="2640" height="1650" viewBox="0 0 2640 1650"><path fill="none" stroke="#AE90D5" stroke-width="3" stroke-miterlimit="10" d="M-3.13 765c20.34 0 20.34 118 40.68 118S57.9 765 78.23 765s20.34 118 40.67 118c20.34 0 20.34-118 40.68-118s20.34 118 40.68 118 20.34-118 40.67-118c20.34 0 20.34 118 40.68 118 20.35 0 20.35-118 40.7-118 20.33 0 20.33 118 40.66 118 20.34 0 20.34-118 40.68-118s20.34 118 40.68 118S464.66 765 485 765s20.34 118 40.68 118 20.34-118 40.67-118 20.34 118 40.68 118 20.34-118 40.68-118c20.35 0 20.35 118 40.7 118 20.33 0 20.33-118 40.67-118 20.34 0 20.34 118 40.68 118s20.34-118 40.68-118 20.34 118 40.68 118c20.35 0 20.35-118 40.7-118 20.33 0 20.33 118 40.67 118 20.34 0 20.34-118 40.68-118s20.34 118 40.68 118 20.34-118 40.68-118c20.35 0 20.35 118 40.7 118 20.33 0 20.33-118 40.67-118s20.34 118 40.68 118c20.33 0 20.33-118 40.67-118 20.34 0 20.34 118 40.68 118 20.33 0 20.33-118 40.67-118 20.33 0 20.33 118 40.67 118 20.34 0 20.34-118 40.68-118s20.34 118 40.67 118c20.33 0 20.33-118 40.68-118 20.33 0 20.33 118 40.67 118 20.34 0 20.34-118 40.7-118 20.32 0 20.32 118 40.66 118 20.35 0 20.35-118 40.7-118 20.33 0 20.33 118 40.67 118 20.34 0 20.34-118 40.68-118s20.34 118 40.68 118 20.34-118 40.7-118 20.33 118 40.67 118c20.34 0 20.34-118 40.68-118s20.34 118 40.68 118 20.34-118 40.68-118 20.34 118 40.7 118c20.33 0 20.33-118 40.67-118 20.36 0 20.36 118 40.7 118 20.34 0 20.34-118 40.68-118 20.35 0 20.35 118 40.7 118s20.33-118 40.67-118c20.35 0 20.35 118 40.68 118 20.35 0 20.35-118 40.7-118 20.33 0 20.33 118 40.67 118 20.35 0 20.35-118 40.7-118 20.33 0 20.33 118 40.67 118 20.35 0 20.35-118 40.7-118 20.34 0 20.34 118 40.68 118 20.35 0 20.35-118 40.7-118 20.34 0 20.34 118 40.7 118 20.34 0 20.34-118 40.7-118 20.33 0 20.33 118 40.68 118"/></svg>