<svg xmlns="http://www.w3.org/2000/svg" width="2640" height="1650" viewBox="0 0 2640 1650"><path fill="none" stroke="#9A74CB" stroke-width="5" stroke-miterlimit="10" d="M-4.96 557.2c77.77 0 77.77 533.58 155.54 533.58S228.35 557.2 306.12 557.2s77.77 533.58 155.54 533.58S539.43 557.2 617.2 557.2s77.77 533.58 155.55 533.58c77.77 0 77.77-533.57 155.54-533.57 77.76 0 77.76 533.58 155.52 533.58 77.78 0 77.78-533.57 155.55-533.57 77.77 0 77.77 533.58 155.54 533.58 77.78 0 77.78-533.57 155.55-533.57 77.77 0 77.77 533.58 155.55 533.58 77.77 0 77.77-533.57 155.54-533.57s77.77 533.58 155.55 533.58c77.76 0 77.76-533.57 155.53-533.57 77.78 0 77.78 533.58 155.55 533.58 77.78 0 77.78-533.57 155.56-533.57 77.77 0 77.77 533.58 155.55 533.58"/></svg>