<svg xmlns="http://www.w3.org/2000/svg" width="2640" height="1650" viewBox="0 0 2640 1650"><path fill="none" stroke="#AE90D5" stroke-width="3" stroke-miterlimit="10" d="M-3.13 690.6c20.34 0 20.34 266.8 40.68 266.8S57.9 690.6 78.23 690.6s20.34 266.8 40.67 266.8c20.34 0 20.34-266.8 40.68-266.8s20.34 266.8 40.68 266.8 20.34-266.8 40.67-266.8c20.34 0 20.34 266.8 40.68 266.8 20.35 0 20.35-266.8 40.7-266.8 20.33 0 20.33 266.8 40.66 266.8 20.34 0 20.34-266.8 40.68-266.8s20.34 266.8 40.68 266.8S464.66 690.6 485 690.6s20.34 266.8 40.68 266.8 20.34-266.8 40.67-266.8 20.34 266.8 40.68 266.8 20.34-266.8 40.68-266.8c20.35 0 20.35 266.8 40.7 266.8 20.33 0 20.33-266.8 40.67-266.8 20.34 0 20.34 266.8 40.68 266.8s20.34-266.8 40.68-266.8 20.34 266.8 40.68 266.8c20.35 0 20.35-266.8 40.7-266.8 20.33 0 20.33 266.8 40.67 266.8 20.34 0 20.34-266.8 40.68-266.8s20.34 266.8 40.68 266.8 20.34-266.8 40.68-266.8c20.35 0 20.35 266.8 40.7 266.8 20.33 0 20.33-266.8 40.67-266.8s20.34 266.8 40.68 266.8c20.33 0 20.33-266.8 40.67-266.8 20.34 0 20.34 266.8 40.68 266.8 20.33 0 20.33-266.8 40.67-266.8 20.33 0 20.33 266.8 40.67 266.8 20.34 0 20.34-266.8 40.68-266.8s20.34 266.8 40.67 266.8c20.33 0 20.33-266.8 40.68-266.8 20.33 0 20.33 266.8 40.67 266.8 20.34 0 20.34-266.8 40.7-266.8 20.32 0 20.32 266.8 40.66 266.8 20.35 0 20.35-266.8 40.7-266.8 20.33 0 20.33 266.8 40.67 266.8 20.34 0 20.34-266.8 40.68-266.8s20.34 266.8 40.68 266.8 20.34-266.8 40.7-266.8 20.33 266.8 40.67 266.8c20.34 0 20.34-266.8 40.68-266.8s20.34 266.8 40.68 266.8 20.34-266.8 40.68-266.8 20.34 266.8 40.7 266.8c20.33 0 20.33-266.8 40.67-266.8 20.36 0 20.36 266.8 40.7 266.8 20.34 0 20.34-266.8 40.68-266.8 20.35 0 20.35 266.8 40.7 266.8s20.33-266.8 40.67-266.8c20.35 0 20.35 266.8 40.68 266.8 20.35 0 20.35-266.8 40.7-266.8 20.33 0 20.33 266.8 40.67 266.8 20.35 0 20.35-266.8 40.7-266.8 20.33 0 20.33 266.8 40.67 266.8 20.35 0 20.35-266.8 40.7-266.8 20.34 0 20.34 266.8 40.68 266.8 20.35 0 20.35-266.8 40.7-266.8 20.34 0 20.34 266.8 40.7 266.8 20.34 0 20.34-266.8 40.7-266.8 20.33 0 20.33 266.8 40.68 266.8"/></svg>